/* XPM */
static char * bed[] = {
"80 32 8 1",
" 	c #000000000000",
".	c #FFFFFFFF0000",
"X	c #ACAC32323434",
"o	c #FFFF80800000",
"O	c #0000FFFFFFFF",
"+	c #00000000FFFF",
"@	c #5D5D5D5D5D5D",
"#	c #FFFFFFFFFFFF",
"       ............ XXXXXXXXXXXXXXXXXXXXXXXXXXXXXXXXXXXXXXXXXXXXXXXXXXXXX       ",
" ooooo ...........O ++X+++X+++X+++X+++X+++X+++X+++X+++X+++X+++X+++X+++X++ ooooo ",
" ooooo ..........OO ++X+++X+++X+++X+++X+++X+++X+++X+++X+++X+++X+++X+++X++ ooooo ",
" ooooo .........OOO ++X+++X+++X+++X+++X+++X+++X+++X+++X+++X+++X+++X+++X++ ooooo ",
" ooooo ........OOOO XXXXXXXXXXXXXXXXXXXXXXXXXXXXXXXXXXXXXXXXXXXXXXXXXXXXX ooooo ",
" ooooo .......OOOOO ++X+++X+++X+++X+++X+++X+++X+++X+++X+++X+++X+++X+++X++ ooooo ",
" ooooo ...@@@OOOOOO ++X+++X+++X+++X+++X+++X+++X+++X+++X+++X+++X+++X+++X++ ooooo ",
" ooooo ..@###@OOOOO ++X+++X+++X+++X+++X+++X+++X+++X+++X+++X+++X+++X+++X++ ooooo ",
" ooooo .@#####@OOOO XXXXXXXXXXXXXXXXXXXXXXXXXXXXXXXXXXXXXXXXXXXXXXXXXXXXX ooooo ",
" ooooo .@#####@OOOO ++X+++X+++X+++X+++X+++X+++X+++X+++X+++X+++X+++X+++X++ ooooo ",
" ooooo .@#####@OOOO ++X+++X+++X+++X+++X+++X+++X+++X+++X+++X+++X+++X+++X++ ooooo ",
" ooooo @#######@OOO ++X+++X+++X+++X+++X+++X+++X+++X+++X+++X+++X+++X+++X++ ooooo ",
" ooooo @#######@    XXXXXXXXXXXXXXXXXXXXXXXXXXXXXXXXXXXXXXXXXXXXXXXXXXXXX ooooo ",
" ooooo @#######@++X+++X+++X+++X+++X+++X+++X+++X+++X+++X+++X+++X+++X+++X++ ooooo ",
" ooooo @#######@++X+++X+++X+++X+++X+++X+++X+++X+++X+++X+++X+++X+++X+++X++ ooooo ",
" ooooo @#######@++X+++X+++X+++X+++X+++X+++X+++X+++X+++X+++X+++X+++X+++X++ ooooo ",
" ooooo @#######@XXXXXXXXXXXXXXXXXXXXXXXXXXXXXXXXXXXXXXXXXXXXXXXXXXXXXXXXX ooooo ",
" ooooo @#######@++X+++X+++X+++X+++X+++X+++X+++X+++X+++X+++X+++X+++X+++X++ ooooo ",
" ooooo @#######@++X+++X+++X+++X+++X+++X+++X+++X+++X+++X+++X+++X+++X+++X++ ooooo ",
" ooooo @#######@++X+++X+++X+++X+++X+++X+++X+++X+++X+++X+++X+++X+++X+++X++ ooooo ",
" ooooo X@#####@XXXXXXXXXXXXXXXXXXXXXXXXXXXXXXXXXXXXXXXXXXXXXXXXXXXXXXXXXX ooooo ",
" ooooo +@#####@+++X+++X+++X+++X+++X+++X+++X+++X+++X+++X+++X+++X+++X+++X++ ooooo ",
" ooooo +@#####@+++X+++X+++X+++X+++X+++X+++X+++X+++X+++X+++X+++X+++X+++X++ ooooo ",
" ooooo ++@###@X+++X+++X+++X+++X+++X+++X+++X+++X+++X+++X+++X+++X+++X+++X++ ooooo ",
" ooooo XXX@@@XXXXXXXXXXXXXXXXXXXXXXXXXXXXXXXXXXXXXXXXXXXXXXXXXXXXXXXXXXXX ooooo ",
" ooooo +++X+++X+++X+++X+++X+++X+++X+++X+++X+++X+++X+++X+++X+++X+++X+++X++ ooooo ",
" ooooo +++X+++X+++X+++X+++X+++X+++X+++X+++X+++X+++X+++X+++X+++X+++X+++X++ ooooo ",
" ooooo +++X+++X+++X+++X+++X+++X+++X+++X+++X+++X+++X+++X+++X+++X+++X+++X++ ooooo ",
" ooooo XXXXXXXXXXXXXXXXXXXXXXXXXXXXXXXXXXXXXXXXXXXXXXXXXXXXXXXXXXXXXXXXXX ooooo ",
" ooooo +++X+++X+++X+++X+++X+++X+++X+++X+++X+++X+++X+++X+++X+++X+++X+++X++ ooooo ",
" ooooo +++X+++X+++X+++X+++X+++X+++X+++X+++X+++X+++X+++X+++X+++X+++X+++X++ ooooo ",
"       +++X+++X+++X+++X+++X+++X+++X+++X+++X+++X+++X+++X+++X+++X+++X+++X++       "};
