/* XPM */
static char * chair_xpm[] = {
"48 48 3 1",
" 	c #141434343434",
".	c #000000000000",
"X	c #FFFFA8A85858",
"                                                ",
"                                                ",
"                                                ",
"                                                ",
"                                                ",
"                                                ",
"                     .                          ",
"                   ...                          ",
"                 ..XX.                          ",
"                .XXXX.                          ",
"              ..XXXXX.                          ",
"            ..XXXXXXX.                          ",
"          ..XXXXXXXXX.                          ",
"         .XXXXXXX.XXX.                          ",
"        .XXXXXX...XXX.                          ",
"        .XXXX..  .XXX.                          ",
"        .XX..    .XXX.                          ",
"        .XX.     .XXX.                          ",
"        .XX.     .XXX.                          ",
"        .XX.   ..XXXX.                          ",
"        .XX. ..XXXXXX.                          ",
"        .XX..XXXXXXXX.                          ",
"        .XXXXXXXXXXXX.                          ",
"        .XXXXXXXXXXX.X..                        ",
"        .XXXXXXXXX..XXXX..                      ",
"        .XXXXXXXX.XXXXXXXX..                    ",
"        .XXXXXX..XXXXXXXXXXX..                  ",
"        .XXXXX.XXXXXXXXXXXXXXX..                ",
"        .XXX..XXXXXXXXXXXXXXXXXX.               ",
"        .XX.XXXXXXXXXXXXXXXXXXX..               ",
"        ...XXXXXXXXXXXXXXXXXXX.X.               ",
"        ...XXXXXXXXXXXXXXXXXX..X.               ",
"        .X..XXXXXXXXXXXXXXXX. .X.               ",
"        .X. ...XXXXXXXXXXXX.  .X.               ",
"        .X.    ..XXXXXXXXX.   .X.               ",
"        .X.      ...XXXXX.    .X.               ",
"        .X.         ..XX.     .X.               ",
"        .X.          ...      .X.               ",
"        .X.          .X.      ...               ",
"        .X.          .X.                        ",
"        .X.          .X.                        ",
"        .X.          .X.                        ",
"        ...          .X.                        ",
"                     .X.                        ",
"                     .X.                        ",
"                     ...                        ",
"                                                ",
"                                                "};
