/* XPM */
static char * dresser_xpm[] = {
"64 64 5 1",
" 	c #000000000000",
".	c #141434343434",
"X	c #FFFF80800000",
"o	c #FFFFFFFFFFFF",
"O	c #4E4E4E4E4E4E",
"                                                          ......",
"  XXXXXXXXXXXXXXXXXXXXXXXXXXXXXXXXXXXXXXXXXXXXXXXXXXXXXXXX .....",
" X XXXXXXXXXXXXXXXXXXXXXXXXXXXXXXXXXXXXXXXXXXXXXXXXXXXXXXXX ....",
" XX                                                         ....",
" XX XXXXXXXXXXXXXXXXXXXXXXXXXXXXXXXXXXXXXXXXXXXXXXXXXXXXXXX ....",
" XX XXXXXXXXXXXXXXXXXXXXXXXXXXXXXXXXXXXXXXXXXXXXXXXXXXXXXXX ....",
" XX XXXXXXXXXXXXXXXXXXXXXXXXXXXXXXXXXXXXXXXXXXXXXXXXXXXXXXX ....",
" XX XXXX                                               XXXX ....",
" XX XXXX XXXXXXXXXXXXXXXXXXXXXXXXXXXXXXXXXXXXXXXXXXXXX XXXX ....",
" XX XXXX XXXXXXooXXXXXXXXXXXXXXXXXXXXXXXXXXXXXooXXXXXX XXXX ....",
" XX XXXX XXXXXoOOoXXXXXXXXXXXXXXXXXXXXXXXXXXXoOOoXXXXX XXXX ....",
" XX XXXX XXXXXoOOoXXXXXXXXXXXXXXXXXXXXXXXXXXXoOOoXXXXX XXXX ....",
" XX XXXX XXXXXXooXXXXXXXXXXXXXXXXXXXXXXXXXXXXXooXXXXXX XXXX ....",
" XX XXXX XXXXXXXXXXXXXXXXXXXXXXXXXXXXXXXXXXXXXXXXXXXXX XXXX ....",
" XX XXXX                                               XXXX ....",
" XX XXXXXXXXXXXXXXXXXXXXXXXXXXXXXXXXXXXXXXXXXXXXXXXXXXXXXXX ....",
" XX XXXXXXXXXXXXXXXXXXXXXXXXXXXXXXXXXXXXXXXXXXXXXXXXXXXXXXX ....",
" XX XXXX                                               XXXX ....",
" XX XXXX XXXXXXXXXXXXXXXXXXXXXXXXXXXXXXXXXXXXXXXXXXXXX XXXX ....",
" XX XXXX XXXXXXooXXXXXXXXXXXXXXXXXXXXXXXXXXXXXooXXXXXX XXXX ....",
" XX XXXX XXXXXoOOoXXXXXXXXXXXXXXXXXXXXXXXXXXXoOOoXXXXX XXXX ....",
" XX XXXX XXXXXoOOoXXXXXXXXXXXXXXXXXXXXXXXXXXXoOOoXXXXX XXXX ....",
" XX XXXX XXXXXXooXXXXXXXXXXXXXXXXXXXXXXXXXXXXXooXXXXXX XXXX ....",
" XX XXXX XXXXXXXXXXXXXXXXXXXXXXXXXXXXXXXXXXXXXXXXXXXXX XXXX ....",
" XX XXXX                                               XXXX ....",
" XX XXXXXXXXXXXXXXXXXXXXXXXXXXXXXXXXXXXXXXXXXXXXXXXXXXXXXXX ....",
" XX XXXXXXXXXXXXXXXXXXXXXXXXXXXXXXXXXXXXXXXXXXXXXXXXXXXXXXX ....",
" XX XXXX                                               XXXX ....",
" XX XXXX XXXXXXXXXXXXXXXXXXXXXXXXXXXXXXXXXXXXXXXXXXXXX XXXX ....",
" XX XXXX XXXXXXXXXXXXXXXXXXXXXXXXXXXXXXXXXXXXXXXXXXXXX XXXX ....",
" XX XXXX XXXXXXXXXXXXXXXXXXXXXXXXXXXXXXXXXXXXXXXXXXXXX XXXX ....",
" XX XXXX XXXXXXooXXXXXXXXXXXXXXXXXXXXXXXXXXXXXooXXXXXX XXXX ....",
" XX XXXX XXXXXoOOoXXXXXXXXXXXXXXXXXXXXXXXXXXXoOOoXXXXX XXXX ....",
" XX XXXX XXXXXoOOoXXXXXXXXXXXXXXXXXXXXXXXXXXXoOOoXXXXX XXXX ....",
" XX XXXX XXXXXXooXXXXXXXXXXXXXXXXXXXXXXXXXXXXXooXXXXXX XXXX ....",
" XX XXXX XXXXXXXXXXXXXXXXXXXXXXXXXXXXXXXXXXXXXXXXXXXXX XXXX ....",
" XX XXXX XXXXXXXXXXXXXXXXXXXXXXXXXXXXXXXXXXXXXXXXXXXXX XXXX ....",
" XX XXXX                                               XXXX ....",
" XX XXXXXXXXXXXXXXXXXXXXXXXXXXXXXXXXXXXXXXXXXXXXXXXXXXXXXXX ....",
" XX XXXXXXXXXXXXXXXXXXXXXXXXXXXXXXXXXXXXXXXXXXXXXXXXXXXXXXX ....",
" XX XXXX                                               XXXX ....",
" XX XXXX XXXXXXXXXXXXXXXXXXXXXXXXXXXXXXXXXXXXXXXXXXXXX XXXX ....",
" XX XXXX XXXXXXXXXXXXXXXXXXXXXXXXXXXXXXXXXXXXXXXXXXXXX XXXX ....",
" XX XXXX XXXXXXXXXXXXXXXXXXXXXXXXXXXXXXXXXXXXXXXXXXXXX XXXX ....",
" XX XXXX XXXXXXXXXXXXXXXXXXXXXXXXXXXXXXXXXXXXXXXXXXXXX XXXX ....",
" XX XXXX XXXXXXXXXXXXXXXXXXXXXXXXXXXXXXXXXXXXXXXXXXXXX XXXX ....",
" XX XXXX XXXXXXXXXXXXXXXXXXXXXXXXXXXXXXXXXXXXXXXXXXXXX XXXX ....",
" XX XXXX XXXXXXXXXXXXXXXXXXXXXXXXXXXXXXXXXXXXXXXXXXXXX XXXX ....",
" XX XXXX XXXXXXXXXXXXXXXXXXXXXXXXXXXXXXXXXXXXXXXXXXXXX XXXX ....",
" XX XXXX XXXXXXooXXXXXXXXXXXXXXXXXXXXXXXXXXXXXooXXXXXX XXXX ....",
" XX XXXX XXXXXoOOoXXXXXXXXXXXXXXXXXXXXXXXXXXXoOOoXXXXX XXXX ....",
" XX XXXX XXXXXoOOoXXXXXXXXXXXXXXXXXXXXXXXXXXXoOOoXXXXX XXXX ....",
" XX XXXX XXXXXXooXXXXXXXXXXXXXXXXXXXXXXXXXXXXXooXXXXXX XXXX ....",
" XX XXXX XXXXXXXXXXXXXXXXXXXXXXXXXXXXXXXXXXXXXXXXXXXXX XXXX ....",
" XX XXXX XXXXXXXXXXXXXXXXXXXXXXXXXXXXXXXXXXXXXXXXXXXXX XXXX ....",
" XX XXXX XXXXXXXXXXXXXXXXXXXXXXXXXXXXXXXXXXXXXXXXXXXXX XXXX ....",
" XX XXXX XXXXXXXXXXXXXXXXXXXXXXXXXXXXXXXXXXXXXXXXXXXXX XXXX ....",
" XX XXXX XXXXXXXXXXXXXXXXXXXXXXXXXXXXXXXXXXXXXXXXXXXXX XXXX ....",
" XX XXXX XXXXXXXXXXXXXXXXXXXXXXXXXXXXXXXXXXXXXXXXXXXXX XXXX ....",
" XX XXXX                                               XXXX ....",
" XX XXXXXXXXXXXXXXXXXXXXXXXXXXXXXXXXXXXXXXXXXXXXXXXXXXXXXXX ....",
". X XXXXXXXXXXXXXXXXXXXXXXXXXXXXXXXXXXXXXXXXXXXXXXXXXXXXXXX ....",
"..  XXXXXXXXXXXXXXXXXXXXXXXXXXXXXXXXXXXXXXXXXXXXXXXXXXXXXXX ....",
"... XXXXXXXXXXXXXXXXXXXXXXXXXXXXXXXXXXXXXXXXXXXXXXXXXXXXXXX ...."};
