/* XPM */
static char * fridge_on3[] = {
"48 80 8 1",
" 	c #4E4E4E4E4E4E",
".	c #FFFFFFFFFFFF",
"X	c #000000000000",
"o	c #0000FFFF0000",
"O	c #82828181A4A4",
"+	c #FFFF00000000",
"@	c #00000000FFFF",
"#	c #0000FFFFFFFF",
"                                                ",
" .....................   ...................... ",
" .....................   ...................... ",
" .....   .....  ......   .     ................ ",
" .... .. ...... ......   . ... ................ ",
" ....  ...  .     ....   .... ...  . . ..  .... ",
" .....  .. .. . .. ...   ... ... . ..  . .. ... ",
" ....... . .. . .. ...   .. ....  ... .. .. ... ",
" .... .. . .. . .. ...   . ... . .... .. .. ... ",
" ....   ...  .    ....   .     ..  .   ..  .... ",
" .....................   ...................... ",
" .....................   ...................... ",
" .....................   ...................... ",
" .....................   ...................... ",
" .....................   ...................... ",
" .....................   ...................... ",
" .....................   ......XXXXXX.......... ",
" .....................   ......XooooX.......... ",
" .....................   ...OOOXooooXOOO....... ",
" .....................   ...O..XXXX+X..O....... ",
" .....................   ...O.....+++..O....... ",
" .....................   ...O.....+.+..O....... ",
" .....................   ...O.....+.+..O....... ",
" .....................   ...O....+++++.O....... ",
" .....................   ...O....+...+.O....... ",
" .....................   ...O...+++.+++O....... ",
" .....................   ...O..........O....... ",
" .....................   ...OOOOOOOOOOOO....... ",
" .....................   ...................... ",
" ................... .   .. ................... ",
" ................... .   .. ................... ",
" ................... .   .. ................... ",
" ..                . .   .. ................... ",
" .. .   .... .. .. . .   .. ................... ",
" .. .   .... .. .. . .   .. ................... ",
" .. .   .... .. .. . .   .. ................... ",
" .. ..@.....    .. . .   .. ................... ",
" .. ..@......###.. . .   .. ................... ",
" .. ..@......###.. . .   .. ................... ",
" .. ..@........... . .   .. ................... ",
" .. ..@....###.... . .   .. ................... ",
" .. ..@....###.... . .   .. ................... ",
" .. ..........###. . .   .. ................... ",
" .. ..........###. . .   .. ................... ",
" ..                . .   .. ................... ",
" ................... .   .. ................... ",
" .....................   ...................... ",
" .....................   ...................... ",
" .....................   ...................... ",
" .....................   ...................... ",
" .....................   ...................... ",
" .....................   ...................... ",
" .....................   ...................... ",
" .....................   ...................... ",
" .....................   ...................... ",
" .....................   ...................... ",
" .....................   ...................... ",
" .....................   ...................... ",
" .....................   ...................... ",
" .....................   ...................... ",
" .....................   ...................... ",
" .....................   ...................... ",
" .....................   ...................... ",
" .....................   ...................... ",
" .....................   ...................... ",
" .....................   ...................... ",
" .....................   ...................... ",
" .....................   ...................... ",
" .....................   ...................... ",
" .....................   ...................... ",
" .....................   ...................... ",
" .....................   ...................... ",
" .....................   ...................... ",
" .....................   ...................... ",
" .....................   ...................... ",
" .....................   ...................... ",
" .....................   ...................... ",
" .....................   ...................... ",
" .....................   ...................... ",
"                                                "};
