/* XPM */
static char *lamp_on_xpm[] = {
"16 16 4 1",
". s color0 c #143434",
"x s color0 c #000000",
"y s color0 c #FFFF00",
"b s color0 c #0000FF",
"................",
"......xxxx......",
"....xxyyyyxx....",
"...xyyyyyyyyx...",
"...xyyyyyyyyx...",
"..xyyyyyyyyyyx..",
"..xxxxxxxxxxxx..",
".......xx.......",
".......xx.......",
"......xbbx......",
".....xbbbbx.....",
".....xbbbbx.....",
".....xbbbbx.....",
"..xxxxxxxxxxxx..",
"................",
"................"
};
