/* XPM */
static char * parent_xpm[] = {
"16 16 2 1",
" 	c #FFFFFFFFFFFF",
".	c #FFFF00000000",
"                ",
"                ",
"     ......     ",
"      .    .    ",
"      .     .   ",
"      .     .   ",
"      .    .    ",
"      .....     ",
"      .         ",
"      .         ",
"      .         ",
"      .         ",
"     ...        ",
"                ",
"                ",
"                "};
