/* XPM */
static char *refrig_xpm[] = {
"16 16 4 1",
". s color0 c #FFFFFF",
"x s color0 c #000000",
"r s color0 c #FF0000",
"b s color0 c #0000FF",
"................",
"...xxxxxxxxxx...",
"..x..........x..",
"..x..bb...bb..x.",
"..x...........x.",
"..x.....x.....x.",
"..x..r.....r..x.",
"..x...rrrrr...x.",
"...x.........x..",
"....xxxxxxxxx...",
"........x.......",
".....xxxxxx.....",
"........x.......",
".......x.x......",
"......x...x.....",
"................"
};
