/* XPM */
static char *shower_on3_xpm[] = {
"32 64 5 1",
". s color0 c #143434",
"x s color0 c #000000",
"w s color0 c #FFFFFF",
"b s color0 c #0000FF",
"s s color0 c #666666",
"....xxxxxxxxxxxxxxxxxxxxxxxx....",
"....xwwwwwwwwwwwwwwwwwwwwwwx....",
"....xwwwwsswwwssswwwwsswwwwx....",
"....xwwxssxxxxsssxxxxxssxwwx....",
"....xwwssbbbbbsssbbbbbbsswwx....",
"....xwwxbbbbbbsssbbbbbbbxwwx....",
"....xwwxbbbbbbsssbbbbbbbxwwx....",
"....xwwxbbbbbbsssbbbbbbbxwwx....",
"....xwwxbbbbbbsssbbbbbbbxwwx....",
"....xwwxbbbbbsssssbbbbbbxwwx....",
"....xwwxbbbbbsssssbbbbbbxwwx....",
"....xwwxbbbbbbbbbbbbbbbbxwwx....",
"....xwwxbbbbbbbbbbbbbbbbxwwx....",
"....xwwxbbbbbbbbbbbbbbbbxwwx....",
"....xwwxbbbbbbbbbbbbbbbbxwwx....",
"....xwwxbbbbbbbbbbbbbbbbxwwx....",
"....xwwxbbbbbbbbbbbbbbbbxwwx....",
"....xwwxbbbbbbbbbbbbbbbbxwwx....",
"....xwwxbbbbbbbbbbbbbbbbxwwx....",
"....xwwxbbbbbbbbbbbbbbbbxwwx....",
"....xwwxbbbbbbbbbbbbbbbbxwwx....",
"....xwwxbbbbbbbbbbbbbbbbxwwx....",
"....xwwxbbbbbbbbbbbbbbbbxwwx....",
"....xwwxbbbbbbbbbbbbbbbbxwwx....",
"....xwwxbbbbbbbbbbbbbbbbxwwx....",
"....xwwxbbbbbbbbbbbbbbbbxwwx....",
"....xwwxbbbbbbbbbbbbbbbbxwwx....",
"....xwwxbbbbbbbbbbbbbbbbxwwx....",
"....xwwxbbbbbbbbbbbbbbbbxwwx....",
"....xwwxbbbbbbbbbbbbbbbbxwwx....",
"....xwwxbbbbbbbbbbbbbbbbxwwx....",
"....xwwxbbbbbbbbbbbbbbbbxwwx....",
"....xwwxbbbbbbbbbbbbbbbbxwwx....",
"....xwwxbbbbbbbbbbbbbbbbxwwx....",
"....xwwxbbbbbbbbbbbbbbbbxwwx....",
"....xwwxbbbbbbbbbbbbbbbbxwwx....",
"....xwwxbbbbbbbbbbbbbbbbxwwx....",
"....xwwxbbbbbbbbbbbbbbbbxwwx....",
"....xwwxbbbbbbbbbbbbbbbbxwwx....",
"....xwwxbbbbbbbbbbbbbbbbxwwx....",
"....xwwxbbbbbbbbbbbbbbbbxwwx....",
"....xwwxbbbbbbbbbbbbbbbbxwwx....",
"....xwwxbbbbbbbbbbbbbbbbxwwx....",
"....xwwxbbbbbbbbbbbbbbbbxwwx....",
"....xwwxbbbbbbbbbbbbbbbbxwwx....",
"....xwwxbbbbbbbbbbbbbbbbxwwx....",
"....xwwxbbbbbbbbbbbbbbbbxwwx....",
"....xwwxbbbbbbbbbbbbbbbbxwwx....",
"....xwwxbbbbbbbbbbbbbbbbxwwx....",
"....xwwxbbbbbbbbbbbbbbbbxwwx....",
"....xwwxbbbbbbbbbbbbbbbbxwwx....",
"....xwwxbbbbbbbbbbbbbbbbxwwx....",
"....xwwxbbbbbbbbbbbbbbbbxwwx....",
".....xwwxbbbbbbbbbbbbbbxwwx.....",
"......xwwxbbbbbbbbbbbbxwwx......",
".......xwwxbbbbbbbbbbxwwx.......",
"........xwwxbbbbbbbbxwwx........",
".........xwwxbbbbbbxwwx.........",
"..........xwwxbbbbxwwx..........",
"...........xwwxxxxwwx...........",
"............xwwwwwwx............",
".............xxxxxx.............",
"................................",
"................................",
};
