/* XPM */
static char *shower_on1_xpm[] = {
"32 64 5 1",
". s color0 c #143434",
"x s color0 c #000000",
"w s color0 c #FFFFFF",
"b s color0 c #0000FF",
"s s color0 c #666666",
"....xxxxxxxxxxxxxxxxxxxxxxxx....",
"....xwwwwwwwwwwwwwwwwwwwwwwx....",
"....xwwwwsswwwssswwwwsswwwwx....",
"....xwwxssxxxxsssxxxxxssxwwx....",
"....xwwsswwwwbsssbbwwwwsswwx....",
"....xwwxwwwwbbsssbbwwwwbxwwx....",
"....xwwxwwwwbbsssbbbwwwwxwwx....",
"....xwwxwwwwbbsssbbbwwwwxwwx....",
"....xwwxwwwwbbsssbbbwwwwxwwx....",
"....xwwxwwwwbsssssbbwwwwxwwx....",
"....xwwxwwwwbsssssbbwwwwxwwx....",
"....xwwxwwwwbbbbbbbbwwwwxwwx....",
"....xwwxwwwwbbbbbbbbwwwwxwwx....",
"....xwwxwwwwbbbbbbbbwwwwxwwx....",
"....xwwxwwwwbbbbbbbbwwwwxwwx....",
"....xwwxwwwwbbbbbbbbwwwwxwwx....",
"....xwwxwwwwbbbbbbbbwwwwxwwx....",
"....xwwxwwwwbbbbbbbbwwwwxwwx....",
"....xwwxwwwwbbbbbbbbwwwwxwwx....",
"....xwwxwwwwbbbbbbbbwwwwxwwx....",
"....xwwxwwwwbbbbbbbbwwwwxwwx....",
"....xwwxwwwwbbbbbbbbwwwwxwwx....",
"....xwwxwwwwbbbbbbbbwwwwxwwx....",
"....xwwxwwwwbbbbbbbbwwwwxwwx....",
"....xwwxwwwwbbbbbbbbwwwwxwwx....",
"....xwwxwwwwbbbbbbbbwwwwxwwx....",
"....xwwxwwwwbbbbbbbbwwwwxwwx....",
"....xwwxwwwwbbbbbbbbwwwwxwwx....",
"....xwwxwwwwbbbbbbbbwwwwxwwx....",
"....xwwxwwwwbbbbbbbbwwwwxwwx....",
"....xwwxwwwwbbbbbbbbwwwwxwwx....",
"....xwwxwwwwbbbbbbbbwwwwxwwx....",
"....xwwxwwwwbbbbbbbbwwwwxwwx....",
"....xwwxwwwwbbbbbbbbwwwwxwwx....",
"....xwwxwwwwbbbbbbbbwwwwxwwx....",
"....xwwxwwwwbbbbbbbbwwwwxwwx....",
"....xwwxwwwwbbbbbbbbwwwwxwwx....",
"....xwwxwwwwbbbbbbbbwwwwxwwx....",
"....xwwxwwwwbbbbbbbbwwwwxwwx....",
"....xwwxwwwwbbbbbbbbwwwwxwwx....",
"....xwwxwwwwbbbbbbbbwwwwxwwx....",
"....xwwxwwwwbbbbbbbbwwwwxwwx....",
"....xwwxwwwwbbbbbbbbwwwwxwwx....",
"....xwwxwwwwbbbbbbbbwwwwxwwx....",
"....xwwxwwwwbbbbbbbbwwwwxwwx....",
"....xwwxwwwwbbbbbbbbwwwwxwwx....",
"....xwwxwwwwbbbbbbbbwwwwxwwx....",
"....xwwxwwwwbbbbbbbbwwwwxwwx....",
"....xwwxwwwwbbbbbbbbwwwwxwwx....",
"....xwwxwwwwbbbbbbbbwwwwxwwx....",
"....xwwxwwwwbbbbbbbbwwwwxwwx....",
"....xwwxwwwwbbbbbbbbwwwwxwwx....",
"....xwwxwwwwbbbbbbbbwwwwxwwx....",
".....xwwxwwwwbbbbbbwwwwxwwx.....",
"......xwwxwwwwbbbbwwwwxwwx......",
".......xwwxwwwwbbwwwwxwwx.......",
"........xwwxwwwwwwwwxwwx........",
".........xwwxwwwwwwxwwx.........",
"..........xwwxwwwwxwwx..........",
"...........xwwxxxxwwx...........",
"............xwwwwwwx............",
".............xxxxxx.............",
"................................",
"................................",
};
