/* XPM */
static char *shower_on2_xpm[] = {
"32 64 5 1",
". s color0 c #143434",
"x s color0 c #000000",
"w s color0 c #FFFFFF",
"b s color0 c #0000FF",
"s s color0 c #666666",
"....xxxxxxxxxxxxxxxxxxxxxxxx....",
"....xwwwwwwwwwwwwwwwwwwwwwwx....",
"....xwwwwsswwwssswwwwsswwwwx....",
"....xwwxssxxxxsssxxxxxssxwwx....",
"....xwwsswwbbbsssbbbbwwsswwx....",
"....xwwxwwbbbbsssbbbbwwbxwwx....",
"....xwwxwwbbbbsssbbbbbwwxwwx....",
"....xwwxwwbbbbsssbbbbbwwxwwx....",
"....xwwxwwbbbbsssbbbbbwwxwwx....",
"....xwwxwwbbbsssssbbbbwwxwwx....",
"....xwwxwwbbbsssssbbbbwwxwwx....",
"....xwwxwwbbbbbbbbbbbbwwxwwx....",
"....xwwxwwbbbbbbbbbbbbwwxwwx....",
"....xwwxwwbbbbbbbbbbbbwwxwwx....",
"....xwwxwwbbbbbbbbbbbbwwxwwx....",
"....xwwxwwbbbbbbbbbbbbwwxwwx....",
"....xwwxwwbbbbbbbbbbbbwwxwwx....",
"....xwwxwwbbbbbbbbbbbbwwxwwx....",
"....xwwxwwbbbbbbbbbbbbwwxwwx....",
"....xwwxwwbbbbbbbbbbbbwwxwwx....",
"....xwwxwwbbbbbbbbbbbbwwxwwx....",
"....xwwxwwbbbbbbbbbbbbwwxwwx....",
"....xwwxwwbbbbbbbbbbbbwwxwwx....",
"....xwwxwwbbbbbbbbbbbbwwxwwx....",
"....xwwxwwbbbbbbbbbbbbwwxwwx....",
"....xwwxwwbbbbbbbbbbbbwwxwwx....",
"....xwwxwwbbbbbbbbbbbbwwxwwx....",
"....xwwxwwbbbbbbbbbbbbwwxwwx....",
"....xwwxwwbbbbbbbbbbbbwwxwwx....",
"....xwwxwwbbbbbbbbbbbbwwxwwx....",
"....xwwxwwbbbbbbbbbbbbwwxwwx....",
"....xwwxwwbbbbbbbbbbbbwwxwwx....",
"....xwwxwwbbbbbbbbbbbbwwxwwx....",
"....xwwxwwbbbbbbbbbbbbwwxwwx....",
"....xwwxwwbbbbbbbbbbbbwwxwwx....",
"....xwwxwwbbbbbbbbbbbbwwxwwx....",
"....xwwxwwbbbbbbbbbbbbwwxwwx....",
"....xwwxwwbbbbbbbbbbbbwwxwwx....",
"....xwwxwwbbbbbbbbbbbbwwxwwx....",
"....xwwxwwbbbbbbbbbbbbwwxwwx....",
"....xwwxwwbbbbbbbbbbbbwwxwwx....",
"....xwwxwwbbbbbbbbbbbbwwxwwx....",
"....xwwxwwbbbbbbbbbbbbwwxwwx....",
"....xwwxwwbbbbbbbbbbbbwwxwwx....",
"....xwwxwwbbbbbbbbbbbbwwxwwx....",
"....xwwxwwbbbbbbbbbbbbwwxwwx....",
"....xwwxwwbbbbbbbbbbbbwwxwwx....",
"....xwwxwwbbbbbbbbbbbbwwxwwx....",
"....xwwxwwbbbbbbbbbbbbwwxwwx....",
"....xwwxwwbbbbbbbbbbbbwwxwwx....",
"....xwwxwwbbbbbbbbbbbbwwxwwx....",
"....xwwxwwbbbbbbbbbbbbwwxwwx....",
"....xwwxwwbbbbbbbbbbbbwwxwwx....",
".....xwwxwwbbbbbbbbbbwwxwwx.....",
"......xwwxwwbbbbbbbbwwxwwx......",
".......xwwxwwbbbbbbwwxwwx.......",
"........xwwxwwbbbbwwxwwx........",
".........xwwxwwbbwwxwwx.........",
"..........xwwxwwwwxwwx..........",
"...........xwwxxxxwwx...........",
"............xwwwwwwx............",
".............xxxxxx.............",
"................................",
"................................",
};
