/* XPM */
static char * sink_on2_xpm[] = {
"32 32 7 1",
" 	c #000000000000",
".	c #FFFFFFFFFFFF",
"X	c #F2F2F2F2F2F2",
"o	c #C0C0C0C0C0C0",
"O	c #00000000FFFF",
"+	c #DCDCDCDCDCDC",
"@	c #141434343434",
" .                              ",
" . X......................... . ",
" . .oooooo....oooo....oooooo. . ",
" . .oooooo....oooo....oooooo. . ",
" . ..XXXX.....oooo........... . ",
" . ..         oooo         .. . ",
" . . ..OOOOOOOooooOOOOOOO.. . . ",
" .  ...OOOOOOOooooOOOOOOO...  . ",
" . ...+OOOOOOOooooOOOOOOO+... . ",
" . ..+.OOOOOOOooooOOOOOOO.+.. . ",
" . ..+.OOOOOOOooooOOOOOOO.+.. . ",
" . ..+.OOOOOOOooooOOOOOOO.+.. . ",
" . ..+.OOOOOOOooooOOOOOOO.+.. . ",
" . ..+.OOOOOOOooooOOOOOOO.+.. . ",
" . ..+.OOOOOOOooooOOOOOOO.+.. . ",
" . ..+.OOOOOOOooooOOOOOOO.+.. . ",
" . ..+.OOOOOOOOOOOOOOOOOO.+.. . ",
" . ..+.OOOOOOOOOOOOOOOOOO.+.. . ",
" . ..+.OOOOOOOOOOOOOOOOOO.+.. . ",
" . ..+.OOOOOOOOOOOOOOOOOO.+.. . ",
" . ..+.OOOOOOOOOOOOOOOOOO.+.. . ",
" . ..+.OOOOOOOOOOOOOOOOOO.+.. . ",
" . ...+.OOOOOOOOOOOOOOOO.+... . ",
" .. ...+.OOOOOOOOOOOOOO.+.... . ",
"@ .. ...+..............+.... . @",
"@@ .. ...+............+.... . @@",
"@@@ .. ...++++++++++++.... . @@@",
"@@@@ .. ................. . @@@@",
"@@@@@ .. ............... . @@@@@",
"@@@@@@ ..               . @@@@@@",
"@@@@@@@ ................ @@@@@@@",
"@@@@@@@@                @@@@@@@@"};
