/* XPM */
static char * sink_on3_xpm[] = {
"32 32 6 1",
" 	c #000000000000",
".	c #FFFFFFFFFFFF",
"X	c #F2F2F2F2F2F2",
"o	c #C0C0C0C0C0C0",
"O	c #00000000FFFF",
"+	c #141434343434",
" .                              ",
" . X......................... . ",
" . .oooooo....oooo....oooooo. . ",
" . .oooooo....oooo....oooooo. . ",
" . ..XXXX.....oooo........... . ",
" . ..         oooo         .. . ",
" . . OOOOOOOOOooooOOOOOOOOO . . ",
" .  OOOOOOOOOOooooOOOOOOOOOO  . ",
" . OOOOOOOOOOOooooOOOOOOOOOOO . ",
" . OOOOOOOOOOOooooOOOOOOOOOOO . ",
" . OOOOOOOOOOOooooOOOOOOOOOOO . ",
" . OOOOOOOOOOOooooOOOOOOOOOOO . ",
" . OOOOOOOOOOOooooOOOOOOOOOOO . ",
" . OOOOOOOOOOOooooOOOOOOOOOOO . ",
" . OOOOOOOOOOOooooOOOOOOOOOOO . ",
" . OOOOOOOOOOOooooOOOOOOOOOOO . ",
" . OOOOOOOOOOOOOOOOOOOOOOOOOO . ",
" . OOOOOOOOOOOOOOOOOOOOOOOOOO . ",
" . OOOOOOOOOOOOOOOOOOOOOOOOOO . ",
" . OOOOOOOOOOOOOOOOOOOOOOOOOO . ",
" . OOOOOOOOOOOOOOOOOOOOOOOOOO . ",
" . OOOOOOOOOOOOOOOOOOOOOOOOOO . ",
" . OOOOOOOOOOOOOOOOOOOOOOOOOO . ",
" .. OOOOOOOOOOOOOOOOOOOOOOOOO . ",
"+ .. OOOOOOOOOOOOOOOOOOOOOOO . +",
"++ .. OOOOOOOOOOOOOOOOOOOOO . ++",
"+++ .. OOOOOOOOOOOOOOOOOOO . +++",
"++++ .. OOOOOOOOOOOOOOOOO . ++++",
"+++++ .. OOOOOOOOOOOOOOO . +++++",
"++++++ ..               . ++++++",
"+++++++ ................ +++++++",
"++++++++                ++++++++"};
