/* XPM */
static char * couch[] = {
"64 32 6 1",
" 	c #141434343434",
".	c #FFFFFFFF0000",
"X	c #FEFEA8A85858",
"o	c #FFFFFFFFFFFF",
"O	c #C8C861616060",
"+	c #0000FFFFFFFF",
" ...XXX..................................................XXX... ",
" .oXOOOXooooooooooooooX+++++++++++++++++XoooooooooooooooXOOOXo. ",
" .XOOOOOXoooooooooooooX+++++++++++++++++XooooooooooooooXOOOOOX. ",
" .XOOOOOXoooooooooooooX+++++++++++++++++XooooooooooooooXOOOOOX. ",
" .XOOOOOXXXXXXXXXXXXXXXXXXXXXXXXXXXXXXXXXXXXXXXXXXXXXXXXOOOOOX. ",
" .XXOOOXX+++++++++++++XoooooooooooooooooX++++++++++++++XXOOOXX. ",
" .XOXXXOX+++++++++++++XoooooooooooooooooX++++++++++++++XOXXXOX. ",
" .XOOOOOXXXXXXXXXXXXXXXXXXXXXXXXXXXXXXXXXXXXXXXXXXXXXXXXOOOOOX. ",
" .XOOOOOX+++++++++++++XoooooooooooooooooX++++++++++++++XOOOOOX. ",
" .XOOOOOX+++++++++++++XoooooooooooooooooX++++++++++++++XOOOOOX. ",
" .XOOOOOXXXXXXXXXXXXXXXXXXXXXXXXXXXXXXXXXXXXXXXXXXXXXXXXOOOOOX. ",
" .XOOOOOX+++++++++++++XoooooooooooooooooX++++++++++++++XOOOOOX. ",
" .XOOOOOX+++++++++++++XoooooooooooooooooX++++++++++++++XOOOOOX. ",
" .XOOOOOXXXXXXXXXXXXXXXXXXXXXXXXXXXXXXXXXXXXXXXXXXXXXXXXOOOOOX. ",
" .XOOOOOXoooooooooooooX+++++++++++++++++XooooooooooooooXOOOOOX. ",
" .XOOOOOXoooooooooooooX+++++++++++++++++XooooooooooooooXOOOOOX. ",
" .XOOOOOXXXXXXXXXXXXXXXXXXXXXXXXXXXXXXXXXXXXXXXXXXXXXXXXOOOOOX. ",
" .XOOOOOXoooooooooooooX+++++++++++++++++XooooooooooooooXOOOOOX. ",
" .XOOOOOXoooooooooooooX+++++++++++++++++XooooooooooooooXOOOOOX. ",
" .XOOOOOXXXXXXXXXXXXXXXXXXXXXXXXXXXXXXXXXXXXXXXXXXXXXXXXOOOOOX. ",
" .XOOOOOXoooooooooooooX+++++++++++++++++XooooooooooooooXOOOOOX. ",
" .XOOOOOXoooooooooooooX+++++++++++++++++XooooooooooooooXOOOOOX. ",
" .XOOOOOXXXXXXXXXXXXXXXXXXXXXXXXXXXXXXXXXXXXXXXXXXXXXXXXOOOOOX. ",
" .XOOOOOX+++++++++++++XoooooooooooooooooX++++++++++++++XOOOOOX. ",
" .XOOOOOX+++++++++++++XoooooooooooooooooX++++++++++++++XOOOOOX. ",
" .XOOOOOXXXXXXXXXXXXXXXXXXXXXXXXXXXXXXXXXXXXXXXXXXXXXXXXOOOOOX. ",
" .XOOOOOX+++++++++++++XoooooooooooooooooX++++++++++++++XOOOOOX. ",
" .XOOOOOX+++++++++++++XoooooooooooooooooX++++++++++++++XOOOOOX. ",
" .XOOOOOXXXXXXXXXXXXXXXXXXXXXXXXXXXXXXXXXXXXXXXXXXXXXXXXOOOOOX. ",
" .XOOOOOX+++++++++++++XoooooooooooooooooX++++++++++++++XOOOOOX. ",
" .............................................................. ",
"                                                                "};
