/* XPM */
static char * stove_on[] = {
"64 64 6 1",
" 	c #141434343434",
".	c #000000000000",
"X	c #FFFFFFFFFFFF",
"o	c #FFFF00000000",
"O	c #FFFFFFFF0000",
"+	c #4E4E4E4E4E4E",
"                                                                ",
"                                                                ",
"                                                                ",
" ........................................................       ",
" ..XXXXXXXXXXXXXXXXXXXXXXXXXXXXXXXXXXXXXXXXXXXXXXXXXXXXX...     ",
" .X.XXXXXXXXXXXXXXXXXXXXXXXXXXXXXXXXXXXXXXXXXXXXXXXXXXXXXX.     ",
" .XX.......................................................     ",
" .XX.XXXXXXXXXXXXXXXXXXXXXXXXXXXXXXXXXXXXXXXXXXXXXXXXXXXXX.     ",
" .XX.XXXXXXXX.....XXXXXXXXXXXXXXXXXXXXXXXXXX......XXXXXXXX.     ",
" .XX.XXXXXX..ooooo..XXXXXXXXXXXXXXXXXXXXXX..oooooo..XXXXXX.     ",
" .XX.XXXXX.oooOOOooo.XXXXXXXXXXXXXXXXXXXX.oooOOOOooo.XXXXX.     ",
" .XX.XXXX.oooOXXXOooo.XXXXXXXXXXXXXXXXXX.oooOXXXXOooo.XXXX.     ",
" .XX.XXXX.ooOXXXXXOoo.XXXXXXXXXXXXXXXXXX.ooOXXXXXXOoo.XXXX.     ",
" .XX.XXX.ooOXXXXXXXOoo.XXXXXXXXXXXXXXXX.ooOXXXXXXXXOoo.XXX.     ",
" .XX.XXX.ooOXXXXXXXOoo.XXXXXXXXXXXXXXXX.ooOXXXXXXXXOoo.XXX.     ",
" .XX.XXX.ooOXXXXXXXOoo.XXXXXXXXXXXXXXXX.ooOXXXXXXXXOoo.XXX.     ",
" .XX.XXX.ooOXXXXXXXOoo.XXXXXXXXXXXXXXXX.ooOXXXXXXXXOoo.XXX.     ",
" .XX.XXXX.ooOXXXXXOoo.XXXXXXXXXXXXXXXXXX.ooOXXXXXXOoo.XXXX.     ",
" .XX.XXXX.oooOXXXOooo.XXXXXXXXXXXXXXXXXX.oooOXXXXOooo.XXXX.     ",
" .XX.XXXXX.oooOOOooo.XXXXXXXXXXXXXXXXXXXX.oooOOOOooo.XXXXX.     ",
" .XX.XXXXXX..ooooo..XXXXXXXXXXXXXXXXXXXXXX..oooooo..XXXXXX.     ",
" .XX.XXXXXXXX.....XXXXXXXXXXXXXXXXXXXXXXXXXX......XXXXXXXX.     ",
" .XX.XXXXXXXXXXXXXXXXXXXXXXXXXXXXXXXXXXXXXXXXXXXXXXXXXXXXX.     ",
" .XX.......................................................     ",
" .XX.XXXXXXXXXXXXXXXXXXXXXXXXXXXXXXXXXXXXXXXXXXXXXXXXXXXXX.     ",
" .XX.XX.................................................XX.     ",
" .XX.XX.XXXXXXXXXXXXXXXXXXXXXXXXXXXXXXXXXXXXXXXXXXXXXXX.XX.     ",
" .XX.XX.XXXXX...XXXXXXXXXXXXXXXXXXXXXXXXXXXXXXX..XXXXXX.XX.     ",
" .XX.XX.XXXX.+++.XXXXXXXXXXXXXXXXXXXXXXXXXXXXX.++.XXXXX.XX.     ",
" .XX.XX.XXX.+..++.XXXXXXXXXXXXXXXXXXXXXXXXXXX.+..+.XXXX.XX.     ",
" .XX.XX.XXX.++.++.XXXXXXXXXXXXXXXXXXXXXXXXXXX.+.++.XXXX.XX.     ",
" .XX.XX.XXXX.+++.XXXXXXXXXXXXXXXXXXXXXXXXXXXXX.++.XXXXX.XX.     ",
" .XX.XX.XXXXX...XXXXXXXXXXXXXXXXXXXXXXXXXXXXXXX..XXXXXX.XX.     ",
" .XX.XX.XXXXXXXXXXXXXXXXXXXXXXXXXXXXXXXXXXXXXXXXXXXXXXX.XX.     ",
" .XX.XX.................................................XX.     ",
" .XX.XXXXXXXXXXXXXXXXXXXXXXXXXXXXXXXXXXXXXXXXXXXXXXXXXXXXX.     ",
" .XX.XXXXXXXXXXXXXXXXXXXXXXXXXXXXXXXXXXXXXXXXXXXXXXXXXXXXX.     ",
" .XX.......................................................     ",
" .XX.XXXXXXXXXXXXXXXXXXXXXXXXXXXXXXXXXXXXXXXXXXXXXXXXXXXXX.     ",
" .XX.XXXXXXXXXXXXXXXXXXXXXXXXXXXXXXXXXXXXXXXXXXXXXXXXXXXXX.     ",
" .XX.XXXXXXXXXXXXXXXXXXXXXXXXXXXXXXXXXXXXXXXXXXXXXXXXXXXXX.     ",
" .XX.XXXXXXXXXXXXXXXXXXXXXXXXXXXXXXXXXXXXXXXXXXXXXXXXXXXXX.     ",
" .XX.XXXXXXXXXXXXXXXXXXXXXXXXXXXXXXXXXXXXXXXXXXXXXXXXXXXXX.     ",
" .XX.XXXXXXXXXXXXXXXXXXXXXXXXXXXXXXXXXXXXXXXXXXXXXXXXXXXXX.     ",
" .XX.XXXXXXXXXXXXXXXXXXXXXXXXXXXXXXXXXXXXXXXXXXXXXXXXXXXXX.     ",
" .XX.XXXXXXXXXXXXXXXXXXXXXXXXXXXXXXXXXXXXXXXXXXXXXXXXXXXXX.     ",
" .XX.XXXXXXXXXXXXXXXXXXXXXXXXXXXXXXXXXXXXXXXXXXXXXXXXXXXXX.     ",
" .XX.XXXXXXXXXXXXXXXXXXXXXXXXXXXXXXXXXXXXXXXXXXXXXXXXXXXXX.     ",
" .XX.XXXXXXXXXXXXXXXXXXXXXXXXXXXXXXXXXXXXXXXXXXXXXXXXXXXXX.     ",
" .XX.XXXXXXXXXXXXXXXXXXXXXXXXXXXXXXXXXXXXXXXXXXXXXXXXXXXXX.     ",
" .XX.XXXXXXXXXXXXXXXXXXXXXXXXXXXXXXXXXXXXXXXXXXXXXXXXXXXXX.     ",
" .XX.XXXXXXXXXXXXXXXXXXXXXXXXXXXXXXXXXXXXXXXXXXXXXXXXXXXXX.     ",
" .XX.XXXXXXXXXXXXXXXXXXXXXXXXXXXXXXXXXXXXXXXXXXXXXXXXXXXXX.     ",
" .XX.XXXXXXXXXXXXXXXXXXXXXXXXXXXXXXXXXXXXXXXXXXXXXXXXXXXXX.     ",
" .XX.XXXXXXXXXXXXXXXXXXXXXXXXXXXXXXXXXXXXXXXXXXXXXXXXXXXXX.     ",
" .XX.XXXXXXXXXXXXXXXXXXXXXXXXXXXXXXXXXXXXXXXXXXXXXXXXXXXXX.     ",
" .XX.XXXXXXXXXXXXXXXXXXXXXXXXXXXXXXXXXXXXXXXXXXXXXXXXXXXXX.     ",
" .XX.XXXXXXXXXXXXXXXXXXXXXXXXXXXXXXXXXXXXXXXXXXXXXXXXXXXXX.     ",
" .XX.XXXXXXXXXXXXXXXXXXXXXXXXXXXXXXXXXXXXXXXXXXXXXXXXXXXXX.     ",
" .XX.XXXXXXXXXXXXXXXXXXXXXXXXXXXXXXXXXXXXXXXXXXXXXXXXXXXXX.     ",
" ..X.XXXXXXXXXXXXXXXXXXXXXXXXXXXXXXXXXXXXXXXXXXXXXXXXXXXXX.     ",
"  .X.XXXXXXXXXXXXXXXXXXXXXXXXXXXXXXXXXXXXXXXXXXXXXXXXXXXXX.     ",
"  .........................................................     ",
"                                                                "};
