/* XPM */
static char * stove[] = {
"64 64 4 1",
" 	c #141434343434",
".	c #000000000000",
"X	c #FFFFFFFFFFFF",
"o	c #4E4E4E4E4E4E",
"                                                                ",
"                                                                ",
"                                                                ",
" ........................................................       ",
" ..XXXXXXXXXXXXXXXXXXXXXXXXXXXXXXXXXXXXXXXXXXXXXXXXXXXXX...     ",
" .X.XXXXXXXXXXXXXXXXXXXXXXXXXXXXXXXXXXXXXXXXXXXXXXXXXXXXXX.     ",
" .XX.......................................................     ",
" .XX.XXXXXXXXXXXXXXXXXXXXXXXXXXXXXXXXXXXXXXXXXXXXXXXXXXXXX.     ",
" .XX.XXXXXXXX.....XXXXXXXXXXXXXXXXXXXXXXXXXX......XXXXXXXX.     ",
" .XX.XXXXXX..XXXXX..XXXXXXXXXXXXXXXXXXXXXX..XXXXXX..XXXXXX.     ",
" .XX.XXXXX.XXX...XXX.XXXXXXXXXXXXXXXXXXXX.XXX....XXX.XXXXX.     ",
" .XX.XXXX.XXX.XXX.XXX.XXXXXXXXXXXXXXXXXX.XXX.XXXX.XXX.XXXX.     ",
" .XX.XXXX.XX.XXXXX.XX.XXXXXXXXXXXXXXXXXX.XX.XXXXXX.XX.XXXX.     ",
" .XX.XXX.XX.XXXXXXX.XX.XXXXXXXXXXXXXXXX.XX.XXXXXXXX.XX.XXX.     ",
" .XX.XXX.XX.XXXXXXX.XX.XXXXXXXXXXXXXXXX.XX.XXXXXXXX.XX.XXX.     ",
" .XX.XXX.XX.XXXXXXX.XX.XXXXXXXXXXXXXXXX.XX.XXXXXXXX.XX.XXX.     ",
" .XX.XXX.XX.XXXXXXX.XX.XXXXXXXXXXXXXXXX.XX.XXXXXXXX.XX.XXX.     ",
" .XX.XXXX.XX.XXXXX.XX.XXXXXXXXXXXXXXXXXX.XX.XXXXXX.XX.XXXX.     ",
" .XX.XXXX.XXX.XXX.XXX.XXXXXXXXXXXXXXXXXX.XXX.XXXX.XXX.XXXX.     ",
" .XX.XXXXX.XXX...XXX.XXXXXXXXXXXXXXXXXXXX.XXX....XXX.XXXXX.     ",
" .XX.XXXXXX..XXXXX..XXXXXXXXXXXXXXXXXXXXXX..XXXXXX..XXXXXX.     ",
" .XX.XXXXXXXX.....XXXXXXXXXXXXXXXXXXXXXXXXXX......XXXXXXXX.     ",
" .XX.XXXXXXXXXXXXXXXXXXXXXXXXXXXXXXXXXXXXXXXXXXXXXXXXXXXXX.     ",
" .XX.......................................................     ",
" .XX.XXXXXXXXXXXXXXXXXXXXXXXXXXXXXXXXXXXXXXXXXXXXXXXXXXXXX.     ",
" .XX.XX.................................................XX.     ",
" .XX.XX.XXXXXXXXXXXXXXXXXXXXXXXXXXXXXXXXXXXXXXXXXXXXXXX.XX.     ",
" .XX.XX.XXXXX...XXXXXXXXXXXXXXXXXXXXXXXXXXXXXXX..XXXXXX.XX.     ",
" .XX.XX.XXXX.ooo.XXXXXXXXXXXXXXXXXXXXXXXXXXXXX.oo.XXXXX.XX.     ",
" .XX.XX.XXX.o..oo.XXXXXXXXXXXXXXXXXXXXXXXXXXX.o..o.XXXX.XX.     ",
" .XX.XX.XXX.oo.oo.XXXXXXXXXXXXXXXXXXXXXXXXXXX.o.oo.XXXX.XX.     ",
" .XX.XX.XXXX.ooo.XXXXXXXXXXXXXXXXXXXXXXXXXXXXX.oo.XXXXX.XX.     ",
" .XX.XX.XXXXX...XXXXXXXXXXXXXXXXXXXXXXXXXXXXXXX..XXXXXX.XX.     ",
" .XX.XX.XXXXXXXXXXXXXXXXXXXXXXXXXXXXXXXXXXXXXXXXXXXXXXX.XX.     ",
" .XX.XX.................................................XX.     ",
" .XX.XXXXXXXXXXXXXXXXXXXXXXXXXXXXXXXXXXXXXXXXXXXXXXXXXXXXX.     ",
" .XX.XXXXXXXXXXXXXXXXXXXXXXXXXXXXXXXXXXXXXXXXXXXXXXXXXXXXX.     ",
" .XX.......................................................     ",
" .XX.XXXXXXXXXXXXXXXXXXXXXXXXXXXXXXXXXXXXXXXXXXXXXXXXXXXXX.     ",
" .XX.XXXXXXXXXXXXXXXXXXXXXXXXXXXXXXXXXXXXXXXXXXXXXXXXXXXXX.     ",
" .XX.XXXXXXXXXXXXXXXXXXXXXXXXXXXXXXXXXXXXXXXXXXXXXXXXXXXXX.     ",
" .XX.XXXXXXXXXXXXXXXXXXXXXXXXXXXXXXXXXXXXXXXXXXXXXXXXXXXXX.     ",
" .XX.XXXXXXXXXXXXXXXXXXXXXXXXXXXXXXXXXXXXXXXXXXXXXXXXXXXXX.     ",
" .XX.XXXXXXXXXXXXXXXXXXXXXXXXXXXXXXXXXXXXXXXXXXXXXXXXXXXXX.     ",
" .XX.XXXXXXXXXXXXXXXXXXXXXXXXXXXXXXXXXXXXXXXXXXXXXXXXXXXXX.     ",
" .XX.XXXXXXXXXXXXXXXXXXXXXXXXXXXXXXXXXXXXXXXXXXXXXXXXXXXXX.     ",
" .XX.XXXXXXXXXXXXXXXXXXXXXXXXXXXXXXXXXXXXXXXXXXXXXXXXXXXXX.     ",
" .XX.XXXXXXXXXXXXXXXXXXXXXXXXXXXXXXXXXXXXXXXXXXXXXXXXXXXXX.     ",
" .XX.XXXXXXXXXXXXXXXXXXXXXXXXXXXXXXXXXXXXXXXXXXXXXXXXXXXXX.     ",
" .XX.XXXXXXXXXXXXXXXXXXXXXXXXXXXXXXXXXXXXXXXXXXXXXXXXXXXXX.     ",
" .XX.XXXXXXXXXXXXXXXXXXXXXXXXXXXXXXXXXXXXXXXXXXXXXXXXXXXXX.     ",
" .XX.XXXXXXXXXXXXXXXXXXXXXXXXXXXXXXXXXXXXXXXXXXXXXXXXXXXXX.     ",
" .XX.XXXXXXXXXXXXXXXXXXXXXXXXXXXXXXXXXXXXXXXXXXXXXXXXXXXXX.     ",
" .XX.XXXXXXXXXXXXXXXXXXXXXXXXXXXXXXXXXXXXXXXXXXXXXXXXXXXXX.     ",
" .XX.XXXXXXXXXXXXXXXXXXXXXXXXXXXXXXXXXXXXXXXXXXXXXXXXXXXXX.     ",
" .XX.XXXXXXXXXXXXXXXXXXXXXXXXXXXXXXXXXXXXXXXXXXXXXXXXXXXXX.     ",
" .XX.XXXXXXXXXXXXXXXXXXXXXXXXXXXXXXXXXXXXXXXXXXXXXXXXXXXXX.     ",
" .XX.XXXXXXXXXXXXXXXXXXXXXXXXXXXXXXXXXXXXXXXXXXXXXXXXXXXXX.     ",
" .XX.XXXXXXXXXXXXXXXXXXXXXXXXXXXXXXXXXXXXXXXXXXXXXXXXXXXXX.     ",
" .XX.XXXXXXXXXXXXXXXXXXXXXXXXXXXXXXXXXXXXXXXXXXXXXXXXXXXXX.     ",
" ..X.XXXXXXXXXXXXXXXXXXXXXXXXXXXXXXXXXXXXXXXXXXXXXXXXXXXXX.     ",
"  .X.XXXXXXXXXXXXXXXXXXXXXXXXXXXXXXXXXXXXXXXXXXXXXXXXXXXXX.     ",
"  .........................................................     ",
"                                                                "};
