/* XPM */
static char *toilet_dirty_xpm[] = {
"32 32 5 1",
". s color0 c #143434",
"x s color0 c #000000",
"w s color0 c #FFFFFF",
"p s color0 c #CCCC00",
"r s color0 c #663333",
"....xxxxxxxxxxxxxxxxxxxxxxxx....",
"....xwwwwwwwwwwwwwwwwwwwwwwx....",
"....xwwwwwwwwwwwwwwwwwwwwwwx....",
"....xwwwwwwwwwwwwwwwwwwwwwwx....",
"....xwwwwwwwwwwwwwwwwwwwwwwx....",
".....xxxxxxxwwwwwwwwxxxxxxx.....",
"...........xwwwwwwwwx...........",
"..........xwwwwwwwwwwx..........",
".........xwwwwxxxxwwwwx.........",
"........xwwwwxppppxwwwwx........",
".......xwwwwxppppppxwwwwx.......",
"......xwwwwxppppppppxwwwwx......",
"......xwwwwxppppppppxwwwwx......",
"......xwwwwxppprrpppxwwwwx......",
"......xwwwwxppprrpppxwwwwx......",
"......xwwwwxppprrpppxwwwwx......",
"......xwwwwxppprrpppxwwwwx......",
"......xwwwwxppprrpppxwwwwx......",
"......xwwwwxppprrpppxwwwwx......",
"......xwwwwxppprrpppxwwwwx......",
"......xwwwwxppprrpppxwwwwx......",
"......xwwwwxppppppppxwwwwx......",
".......xwwwwxppppppxwwwwx.......",
"........xwwwwxppppxwwwwx........",
".........xwwwwxxxxwwwwx.........",
"..........xwwwwwwwwwwx..........",
"...........xwwwwwwwwx...........",
"............xwwwwwwx............",
".............xwwwwx.............",
"..............xxxx..............",
"................................",
"................................"
};
