/* XPM */
static char *tv_on2_xpm[] = {
"32 32 5 1",
". s color0 c #000000",
"x s color0 c #666666",
"r s color0 c #006600",
"w s color0 c #FFFFFF",
"y s color0 c #FFCC00",
"................................",
"................................",
"..xxxxxxxxxxxxxxxxxxxxxxxxxxxx..",
"..x.....r....................x..",
"..x.....r....................x..",
"..x...rrrrr..........r.......x..",
"..x.....r............r.......x..",
"..x.....r..........rrrrr.....x..",
"..x....r.r...........r.......x..",
"..x...r...r..........r.......x..",
"..x.................r.r......x..",
"..x................r...r.....x..",
"..x..........................x..",
"..x.....yy...................x..",
"..x..wwwyywwwwwwwwwwwwwwwww..x..",
"..x..wwwwwwwwwwwwwwwwwwwwww..x..",
"..x..........................x..",
"..x..........................x..",
"..x..........................x..",
"..x..........................x..",
"..x.........r................x..",
"..x.........r................x..",
"..x.......rrrrr..............x..",
"..x.........r................x..",
"..x.........r................x..",
"..x........r.r...............x..",
"..x.......r...r..............x..",
"..x..........................x..",
"..x..........................x..",
"..xxxxxxxxxxxxxxxxxxxxxxxxxxxx..",
"................................",
"................................"
};
