/* XPM */
static char * xcoord[] = {
"496 16 2 1",
" 	c #FFFFFFFFFFFF",
".	c #000000000000",
"                                                                                                                                                                                                                                                                                                                                                                                                                                                                                                                ",
"                                                                                                                                                                                                                                                                                                                                                                                                                                                                                                                ",
"                                                                                                                                                                                                                                                                                                                                                                                                                                                                                                                ",
"                        .             ..             ..                 .              ...             ..           ....              ..             ..              .   ..          .    .        .   ..          .   ..          .     .         .   ...         .    ..         .  ....         .   ..          .   ..         ..   ..         ..    .         ..   ..         ..   ..         ..     .        ..   ...        ..    ..        ..  ....        ..   ..         ..   ..         ..   ..       ",
"                       ..            .  .           .  .               ..              .              .             .  .             .  .           .  .            ..  .  .        ..   ..       ..  .  .        ..  .  .        ..    ..        ..   .          ..   .          ..  .  .        ..  .  .        ..  .  .       .  . .  .       .  .  ..        .  . .  .       .  . .  .       .  .   ..       .  .  .         .  .  .         .  . .  .       .  . .  .       .  . .  .       .  . .  .      ",
"                        .               .              .              . .             ...            ...              .              .  .           .  .             .  .  .         .    .        .     .         .     .         .   . .         .  ...          .  ...          .    .          .  .  .         .  .  .          . .  .          .   .           .    .          .    .          .  . .          . ...           . ...           .   .           . .  .          . .  .          . .  .      ",
"                        .              .             ..              .  .                .           .  .             .               ..            .  .             .  .  .         .    .        .    .          .   ..          .  .  .         .     .         .  .  .         .    .          .   ..          .  .  .         .  .  .         .    .          .    .          .   ..          .  .  .         .     .         .  .  .         .    .          .   ..          .  .  .        ..  .  .      ",
"                        .              .               .             .....               .           .  .            .               .  .            ...             .  .  .         .    .        .    .          .     .         .  .....        .     .         .  .  .         .   .           .  .  .         .   ...         .  .  .         .    .          .    .          .     .         .  .....        .     .         .  .  .         .   .           .  .  .         .   ...          . .  .      ",
"                        .             .                .                .                .           .  .            .               .  .             .              .  .  .         .    .        .   .           .     .         .     .         .     .         .  .  .         .   .           .  .  .         .    .         .   .  .        .     .         .    .          .      .        .      .        .      .        .   .  .        .    .          .   .  .        .     .           . .  .      ",
"                       ...           ....           ...                 .             ...             ..             .                ..            ..              ...  ..         ...  ...      ... ....        ... ...         ...    .        ... ...         ...  ..         ...  .          ...  ..         ... ..         ....  ..        ....  ...       .... ....       .... ...        ....    .       .... ...        ....  ..        ....  .         ....  ..        .... ..         ...   ..       ",
"                                                                                                                                                                                                                                                                                                                                                                                                                                                                                                                ",
"                                                                                                                                                                                                                                                                                                                                                                                                                                                                                                                ",
"                                                                                                                                                                                                                                                                                                                                                                                                                                                                                                                ",
"               .               .               .               .               .               .               .               .               .               .               .               .               .               .               .               .               .               .               .               .               .               .               .               .               .               .               .               .               .               .               .",
"               .               .               .               .               .               .               .               .               .               .               .               .               .               .               .               .               .               .               .               .               .               .               .               .               .               .               .               .               .               .               .",
"................................................................................................................................................................................................................................................................................................................................................................................................................................................................................................................"};
