/* XPM */
static char * ycoord_xpm[] = {
"16 496 2 1",
" 	c #FFFFFFFFFFFF",
".	c #000000000000",
"               .",
"               .",
"               .",
"               .",
"               .",
"               .",
"               .",
"               .",
"               .",
"               .",
"               .",
"               .",
"               .",
"               .",
"               .",
"................",
"               .",
"               .",
"               .",
"               .",
"      .        .",
"     ..        .",
"      .        .",
"      .        .",
"      .        .",
"      .        .",
"     ...       .",
"               .",
"               .",
"               .",
"               .",
"             ...",
"               .",
"               .",
"               .",
"     ..        .",
"    .  .       .",
"       .       .",
"      .        .",
"      .        .",
"     .         .",
"    ....       .",
"               .",
"               .",
"               .",
"               .",
"               .",
"             ...",
"               .",
"               .",
"               .",
"    ..         .",
"   .  .        .",
"      .        .",
"    ..         .",
"      .        .",
"      .        .",
"   ...         .",
"               .",
"               .",
"               .",
"               .",
"               .",
"             ...",
"               .",
"               .",
"               .",
"               .",
"      .        .",
"     ..        .",
"    . .        .",
"   .  .        .",
"   .....       .",
"      .        .",
"      .        .",
"               .",
"               .",
"               .",
"               .",
"             ...",
"               .",
"               .",
"               .",
"               .",
"     ...       .",
"     .         .",
"    ...        .",
"       .       .",
"       .       .",
"       .       .",
"    ...        .",
"               .",
"               .",
"               .",
"               .",
"             ...",
"               .",
"               .",
"               .",
"       ..      .",
"      .        .",
"     ...       .",
"     .  .      .",
"     .  .      .",
"     .  .      .",
"      ..       .",
"               .",
"               .",
"               .",
"               .",
"               .",
"             ...",
"               .",
"               .",
"               .",
"               .",
"      ....     .",
"      .  .     .",
"        .      .",
"        .      .",
"       .       .",
"       .       .",
"       .       .",
"               .",
"               .",
"               .",
"               .",
"             ...",
"               .",
"               .",
"               .",
"      ..       .",
"     .  .      .",
"     .  .      .",
"      ..       .",
"     .  .      .",
"     .  .      .",
"      ..       .",
"               .",
"               .",
"               .",
"               .",
"               .",
"             ...",
"               .",
"               .",
"      ..       .",
"     .  .      .",
"     .  .      .",
"     .  .      .",
"      ...      .",
"       .       .",
"     ..        .",
"               .",
"               .",
"               .",
"               .",
"               .",
"               .",
"             ...",
"               .",
"               .",
"               .",
"               .",
"               .",
"     .   ..    .",
"    ..  .  .   .",
"     .  .  .   .",
"     .  .  .   .",
"     .  .  .   .",
"     .  .  .   .",
"    ...  ..    .",
"               .",
"               .",
"               .",
"             ...",
"               .",
"               .",
"               .",
"    .    .     .",
"   ..   ..     .",
"    .    .     .",
"    .    .     .",
"    .    .     .",
"    .    .     .",
"   ...  ...    .",
"               .",
"               .",
"               .",
"               .",
"               .",
"             ...",
"               .",
"               .",
"      .   ..   .",
"     ..  .  .  .",
"      .     .  .",
"      .    .   .",
"      .    .   .",
"      .   .    .",
"     ... ....  .",
"               .",
"               .",
"               .",
"               .",
"               .",
"               .",
"             ...",
"               .",
"               .",
"               .",
"               .",
"    .   ..     .",
"   ..  .  .    .",
"    .     .    .",
"    .   ..     .",
"    .     .    .",
"    .     .    .",
"   ... ...     .",
"               .",
"               .",
"               .",
"               .",
"             ...",
"               .",
"               .",
"               .",
"    .     .    .",
"   ..    ..    .",
"    .   . .    .",
"    .  .  .    .",
"    .  .....   .",
"    .     .    .",
"   ...    .    .",
"               .",
"               .",
"               .",
"               .",
"               .",
"             ...",
"               .",
"               .",
"               .",
"     .   ...   .",
"    ..   .     .",
"     .  ...    .",
"     .     .   .",
"     .     .   .",
"     .     .   .",
"    ... ...    .",
"               .",
"               .",
"               .",
"               .",
"               .",
"             ...",
"               .",
"               .",
"               .",
"               .",
"    .    ..    .",
"   ..   .      .",
"    .  ...     .",
"    .  .  .    .",
"    .  .  .    .",
"    .  .  .    .",
"   ...  ..     .",
"               .",
"               .",
"               .",
"               .",
"             ...",
"               .",
"               .",
"               .",
"     .  ....   .",
"    ..  .  .   .",
"     .    .    .",
"     .    .    .",
"     .   .     .",
"     .   .     .",
"    ...  .     .",
"               .",
"               .",
"               .",
"               .",
"               .",
"             ...",
"               .",
"               .",
"     .   ..    .",
"    ..  .  .   .",
"     .  .  .   .",
"     .   ..    .",
"     .  .  .   .",
"     .  .  .   .",
"    ...  ..    .",
"               .",
"               .",
"               .",
"               .",
"               .",
"               .",
"             ...",
"               .",
"               .",
"     .   ..    .",
"    ..  .  .   .",
"     .  .  .   .",
"     .  .  .   .",
"     .   ...   .",
"     .    .    .",
"    ... ..     .",
"               .",
"               .",
"               .",
"               .",
"               .",
"               .",
"             ...",
"               .",
"               .",
"    ..   ..    .",
"   .  . .  .   .",
"      . .  .   .",
"     .  .  .   .",
"     .  .  .   .",
"    .   .  .   .",
"   ....  ..    .",
"               .",
"               .",
"               .",
"               .",
"               .",
"               .",
"             ...",
"               .",
"               .",
"    ..    .    .",
"   .  .  ..    .",
"      .   .    .",
"     .    .    .",
"     .    .    .",
"    .     .    .",
"   ....  ...   .",
"               .",
"               .",
"               .",
"               .",
"               .",
"               .",
"             ...",
"               .",
"               .",
"    ..   ..    .",
"   .  . .  .   .",
"      .    .   .",
"     .    .    .",
"     .    .    .",
"    .    .     .",
"   .... ....   .",
"               .",
"               .",
"               .",
"               .",
"               .",
"               .",
"             ...",
"               .",
"               .",
"    ..   ..    .",
"   .  . .  .   .",
"      .    .   .",
"     .   ..    .",
"     .     .   .",
"    .      .   .",
"   .... ...    .",
"               .",
"               .",
"               .",
"               .",
"               .",
"               .",
"             ...",
"               .",
"               .",
"    ..     .   .",
"   .  .   ..   .",
"      .  . .   .",
"     .  .  .   .",
"     .  .....  .",
"    .      .   .",
"   ....    .   .",
"               .",
"               .",
"               .",
"               .",
"               .",
"               .",
"             ...",
"               .",
"               .",
"               .",
"    ..   ...   .",
"   .  .  .     .",
"      . ...    .",
"     .     .   .",
"     .     .   .",
"    .      .   .",
"   .... ...    .",
"               .",
"               .",
"               .",
"               .",
"               .",
"             ...",
"               .",
"               .",
"               .",
"   ..    ..    .",
"  .  .  .      .",
"     . ...     .",
"    .  .  .    .",
"    .  .  .    .",
"   .   .  .    .",
"  ....  ..     .",
"               .",
"               .",
"               .",
"               .",
"               .",
"             ...",
"               .",
"               .",
"               .",
"    ..  ....   .",
"   .  . .  .   .",
"      .   .    .",
"     .    .    .",
"     .   .     .",
"    .    .     .",
"   ....  .     .",
"               .",
"               .",
"               .",
"               .",
"               .",
"             ...",
"               .",
"   ..   ..     .",
"  .  . .  .    .",
"     . .  .    .",
"    .   ..     .",
"    .  .  .    .",
"   .   .  .    .",
"  ....  ..     .",
"               .",
"               .",
"               .",
"               .",
"               .",
"               .",
"               .",
"             ...",
"               .",
"               .",
"               .",
"               .",
"   ..   ..     .",
"  .  . .  .    .",
"     . .  .    .",
"    .  .  .    .",
"    .   ...    .",
"   .     .     .",
"  .... ..      .",
"               .",
"               .",
"               .",
"               .",
"             ...",
"               .",
"               .",
"               .",
"   ..   ..     .",
"  .  . .  .    .",
"     . .  .    .",
"   ..  .  .    .",
"     . .  .    .",
"     . .  .    .",
"  ...   ..     .",
"               .",
"               .",
"               .",
"               .",
"               .",
"             ..."};
